<svg width="420" height="420" viewBox="0 0 420 420" xmlns="http://www.w3.org/2000/svg" role="img" aria-labelledby="title desc">
  <title id="title">FoodStack logo</title>
  <desc id="desc">Logo do FoodStack com uma despensa estilizada e camadas de ingredientes.</desc>
  <rect width="420" height="420" rx="64" fill="#0B2545"/>
  <rect x="92" y="86" width="236" height="256" rx="28" fill="#F6F7F9"/>
  <rect x="120" y="124" width="180" height="36" rx="12" fill="#2A9D8F"/>
  <rect x="120" y="184" width="180" height="36" rx="12" fill="#E9C46A"/>
  <rect x="120" y="244" width="180" height="36" rx="12" fill="#E76F51"/>
  <line x1="112" y1="172" x2="308" y2="172" stroke="#D6DAE1" stroke-width="10" stroke-linecap="round"/>
  <line x1="112" y1="232" x2="308" y2="232" stroke="#D6DAE1" stroke-width="10" stroke-linecap="round"/>
  <circle cx="152" cy="142" r="10" fill="#0B2545"/>
  <circle cx="152" cy="202" r="10" fill="#0B2545"/>
  <circle cx="152" cy="262" r="10" fill="#0B2545"/>
  <path d="M264 107c18 0 32-14 32-32-18 0-32 14-32 32Z" fill="#8AB17D"/>
  <path d="M249 109c0-21-13-37-30-43-2 22 10 39 30 43Z" fill="#F4A261"/>
  <text x="210" y="375" text-anchor="middle" font-family="Arial, Helvetica, sans-serif" font-size="44" font-weight="700" fill="#FFFFFF">FoodStack</text>
</svg>
